<?xml version="1.0" encoding="UTF-8"?>
<svg id="Layer_1" data-name="Layer 1" xmlns="http://www.w3.org/2000/svg" viewBox="0 0 186.55 38.88">
  <defs>
    <style>
      .cls-1 {
        fill: #5d5e5e;
      }
    </style>
  </defs>
  <path class="cls-1" d="M9.5,23.7l-2.16,2.2v5.13H0V2.39h7.33v15.02l7.49-7.3h8.69l-8.69,8.96,9.42,11.97h-8.88l-5.87-7.33Z"/>
  <path class="cls-1" d="M25.59,3.9c0-2.2,1.78-3.9,4.48-3.9s4.48,1.58,4.48,3.78c0,2.32-1.78,4.01-4.48,4.01s-4.48-1.7-4.48-3.9ZM26.4,10.11h7.33v20.92h-7.33V10.11Z"/>
  <path class="cls-1" d="M60.72,2.39v28.64h-6.99v-2.08c-1.39,1.66-3.44,2.43-6.14,2.43-5.71,0-10.31-4.17-10.31-10.85s4.59-10.77,10.31-10.77c2.43,0,4.4.69,5.79,2.16V2.39h7.33ZM53.5,20.54c0-3.17-1.89-4.94-4.36-4.94s-4.4,1.78-4.4,4.94,1.89,5.02,4.4,5.02,4.36-1.81,4.36-5.02Z"/>
  <path class="cls-1" d="M63.77,29.22l2.2-5.02c1.93,1.2,4.75,1.93,7.3,1.93s3.28-.54,3.28-1.43c0-2.82-12.35.39-12.35-7.99,0-3.94,3.63-6.95,10.19-6.95,2.93,0,6.18.62,8.26,1.78l-2.2,4.98c-2.08-1.16-4.17-1.54-6.02-1.54-2.47,0-3.36.69-3.36,1.47,0,2.9,12.31-.23,12.31,8.07,0,3.86-3.55,6.87-10.35,6.87-3.55,0-7.22-.89-9.27-2.16Z"/>
  <path class="cls-1" d="M96.46,20.54c0-6.29,4.98-10.77,11.81-10.77s11.81,4.48,11.81,10.77-4.9,10.85-11.81,10.85-11.81-4.52-11.81-10.85ZM112.67,20.54c0-3.17-1.89-4.94-4.4-4.94s-4.4,1.78-4.4,4.94,1.93,5.02,4.4,5.02,4.4-1.81,4.4-5.02Z"/>
  <path class="cls-1" d="M145.75,19.07v11.97h-7.33v-10.77c0-3.01-1.31-4.29-3.44-4.29-2.36,0-4.17,1.47-4.17,4.94v10.11h-7.33V10.11h6.99v2.28c1.66-1.74,4.01-2.62,6.64-2.62,4.9,0,8.65,2.82,8.65,9.3Z"/>
  <path class="cls-1" d="M150.34,23.7V2.39h7.33v20.92c0,1.58.85,2.39,2.28,2.39.62,0,1.27-.19,1.66-.39l.31,5.52c-1.2.39-2.28.54-3.44.54-5.06,0-8.15-2.66-8.15-7.68Z"/>
  <path class="cls-1" d="M186.55,10.11v17.1c0,7.91-4.44,11.66-12.04,11.66-3.98,0-7.68-.93-10.19-2.74l2.66-5.13c1.66,1.39,4.4,2.24,6.83,2.24,3.78,0,5.4-1.78,5.4-5.06v-.46c-1.58,1.51-3.63,2.24-5.87,2.24-5.13,0-8.88-2.93-8.88-9.57v-10.27h7.33v9.07c0,3.28,1.27,4.55,3.47,4.55s3.94-1.47,3.94-4.94v-8.69h7.33Z"/>
</svg>